<svg width="236" height="33" viewBox="0 0 236 33" fill="none" xmlns="http://www.w3.org/2000/svg">
<g id="Capa_1" clip-path="url(#clip0_870_600)">
<g id="Group">
<path id="Vector" d="M56.3015 7.17269C60.2426 7.17269 63.4227 9.57218 64.6031 13.4322L64.8562 14.2572L68.4419 12.7947L68.1926 12.0528C66.3979 6.738 61.7303 3.30492 56.3015 3.30492C49.0643 3.30492 43.6066 9.06408 43.6066 16.7011C43.6066 24.3381 49.0643 30.0973 56.3015 30.0973C61.7206 30.0973 66.3747 26.7048 68.1598 21.4556L68.409 20.7234L64.8291 19.2049L64.5722 20.0395C63.3937 23.859 60.2253 26.2314 56.3015 26.2314C51.1625 26.2314 47.5748 22.3134 47.5748 16.703C47.5748 11.0926 51.1644 7.17463 56.3015 7.17463" fill="#2D3F51"/>
<path id="Vector_2" d="M81.5829 7.69047C82.7981 7.69047 85.6227 7.99765 85.6227 10.8415C85.6227 14.1529 82.5663 14.5103 81.2526 14.5103H75.4296V7.69047H81.5829ZM75.4296 18.2042H82.5721C85.472 18.2042 86.9422 19.4387 86.9422 21.873C86.9422 24.7033 84.6837 25.7137 82.5721 25.7137H75.4296V18.2061V18.2042ZM87.0562 15.6269L87.0871 15.6038C88.6597 14.4253 89.4904 12.6575 89.4904 10.4957C89.4904 6.37867 86.5983 3.82269 81.9442 3.82269H71.5599V29.5795H82.9334C87.6435 29.5795 90.808 26.4826 90.808 21.873C90.808 18.9383 89.4769 16.7262 87.0542 15.6269" fill="#2D3F51"/>
</g>
<path id="Vector_3" d="M109.322 22.0101L97.3072 3.82268H93.8085V29.5815H97.6762V11.3921L109.693 29.5815H113.19V3.82268H109.322V22.0101Z" fill="#2D3F51"/>
<path id="Vector_4" d="M127.465 17.6458L126.171 16.3959L127.401 15.256L135.112 5.07845V3.82268H131.372L123.24 14.4407H121.045V3.82268H117.178V29.5351L121.012 29.593V18.3085H123.159L131.851 29.5815H135.773V28.3373L127.465 17.6458Z" fill="#2D3F51"/>
<path id="Vector_5" d="M30.7302 23.7064H22.5349V9.27466H8.71558V0.714157H30.7302V23.7064Z" fill="#2D3F51"/>
<path id="Vector_6" d="M22.5348 32.6088C10.2166 32.6088 0.193604 22.1415 0.193604 9.27466H8.71547C8.71547 17.2305 14.9151 23.7064 22.5348 23.7064V32.6088Z" fill="#2D3F51"/>
<path id="Vector_7" d="M144.777 18.5519H148.139V19.3382H144.777V18.5519ZM144.084 12.1938H144.915V19.3382H144.084V12.1938Z" fill="#919292"/>
<g id="Group_2">
<path id="Vector_8" d="M151.949 19.3382L151.9 18.5017V16.6431C151.9 16.2413 151.856 15.9109 151.769 15.6482C151.682 15.3854 151.547 15.1884 151.369 15.0551C151.189 14.9218 150.954 14.8561 150.66 14.8561C150.366 14.8561 150.136 14.914 149.932 15.0299C149.727 15.1459 149.559 15.3255 149.429 15.5709L148.726 15.2753C148.855 15.0377 149.012 14.829 149.196 14.6532C149.377 14.4774 149.592 14.3422 149.835 14.2494C150.078 14.1567 150.359 14.1123 150.672 14.1123C151.122 14.1123 151.496 14.205 151.796 14.3885C152.095 14.5721 152.319 14.8464 152.47 15.2096C152.619 15.5748 152.69 16.0288 152.685 16.5716L152.675 19.3382H151.952H151.949ZM150.482 19.4599C149.908 19.4599 149.46 19.3228 149.139 19.0465C148.817 18.7702 148.656 18.3877 148.656 17.8989C148.656 17.3811 148.821 16.9851 149.149 16.7107C149.478 16.4345 149.939 16.2973 150.532 16.2973H151.929V16.9812H150.708C150.252 16.9812 149.928 17.0585 149.736 17.2169C149.545 17.3734 149.449 17.5975 149.449 17.8912C149.449 18.1559 149.543 18.3664 149.733 18.5191C149.922 18.6717 150.185 18.749 150.525 18.749C150.805 18.749 151.048 18.6813 151.257 18.5442C151.466 18.4089 151.626 18.2235 151.736 17.9878C151.846 17.7521 151.902 17.4855 151.902 17.186H152.381C152.381 17.8796 152.219 18.4321 151.893 18.8436C151.566 19.2551 151.097 19.4619 150.486 19.4619" fill="#919292"/>
<path id="Vector_9" d="M158.594 18.7161C158.9 18.7161 159.172 18.635 159.41 18.4708C159.647 18.3065 159.837 18.0805 159.976 17.7926C160.115 17.5029 160.186 17.1686 160.186 16.788C160.186 16.4074 160.119 16.0809 159.985 15.7873C159.852 15.4956 159.667 15.2676 159.429 15.1034C159.191 14.9391 158.915 14.858 158.604 14.858C158.318 14.858 158.061 14.9391 157.837 15.1034C157.613 15.2676 157.437 15.4936 157.31 15.7815C157.182 16.0713 157.118 16.4055 157.118 16.7861C157.118 17.1667 157.182 17.4932 157.31 17.7869C157.437 18.0805 157.611 18.3085 157.833 18.4708C158.055 18.633 158.309 18.7161 158.596 18.7161M158.772 19.4619C158.363 19.4619 158.001 19.3498 157.692 19.1257C157.383 18.9016 157.144 18.5867 156.974 18.181C156.804 17.7753 156.72 17.3116 156.72 16.788C156.72 16.2645 156.805 15.7911 156.974 15.3893C157.144 14.9874 157.383 14.6745 157.692 14.4504C158.001 14.2263 158.361 14.1142 158.772 14.1142C159.209 14.1142 159.593 14.2263 159.926 14.4504C160.258 14.6745 160.517 14.9874 160.702 15.3893C160.888 15.7911 160.98 16.2567 160.98 16.788C160.98 17.3193 160.888 17.7772 160.702 18.181C160.517 18.5867 160.258 18.8997 159.926 19.1257C159.593 19.3498 159.209 19.4619 158.772 19.4619ZM156.34 19.3401V12.1958H157.122V18.3916L157.084 19.3401H156.342H156.34Z" fill="#919292"/>
<path id="Vector_10" d="M165.072 19.3382L165.024 18.5017V16.6431C165.024 16.2413 164.98 15.9109 164.893 15.6482C164.806 15.3854 164.671 15.1884 164.493 15.0551C164.313 14.9218 164.077 14.8561 163.784 14.8561C163.49 14.8561 163.26 14.914 163.055 15.0299C162.851 15.1459 162.683 15.3255 162.553 15.5709L161.85 15.2753C161.979 15.0377 162.136 14.829 162.319 14.6532C162.501 14.4774 162.715 14.3422 162.959 14.2494C163.202 14.1567 163.482 14.1123 163.795 14.1123C164.246 14.1123 164.62 14.205 164.92 14.3885C165.219 14.5721 165.443 14.8464 165.594 15.2096C165.743 15.5748 165.814 16.0288 165.808 16.5716L165.799 19.3382H165.076H165.072ZM163.606 19.4599C163.032 19.4599 162.584 19.3228 162.263 19.0465C161.941 18.7702 161.78 18.3877 161.78 17.8989C161.78 17.3811 161.945 16.9851 162.273 16.7107C162.601 16.4345 163.063 16.2973 163.656 16.2973H165.053V16.9812H163.832C163.376 16.9812 163.052 17.0585 162.86 17.2169C162.669 17.3734 162.572 17.5975 162.572 17.8912C162.572 18.1559 162.667 18.3664 162.856 18.5191C163.046 18.6717 163.309 18.749 163.649 18.749C163.929 18.749 164.172 18.6813 164.381 18.5442C164.589 18.4089 164.75 18.2235 164.86 17.9878C164.97 17.7521 165.026 17.4855 165.026 17.186H165.505C165.505 17.8796 165.343 18.4321 165.016 18.8436C164.69 19.2551 164.22 19.4619 163.61 19.4619" fill="#919292"/>
<path id="Vector_11" d="M170.478 19.3382V16.7262L171.261 16.421V19.3401H170.478V19.3382ZM170.478 16.7262C170.478 16.222 170.422 15.8394 170.312 15.5728C170.202 15.3082 170.047 15.1246 169.852 15.0261C169.657 14.9276 169.435 14.8773 169.188 14.8773C168.759 14.8773 168.424 15.0357 168.185 15.3526C167.947 15.6694 167.827 16.1176 167.827 16.6953H167.447C167.447 16.1582 167.522 15.6945 167.671 15.3082C167.82 14.9198 168.038 14.6242 168.32 14.4195C168.604 14.2147 168.946 14.1142 169.352 14.1142C169.945 14.1142 170.412 14.3055 170.754 14.6861C171.096 15.0667 171.264 15.6462 171.257 16.421L170.474 16.7262H170.478ZM167.047 19.3382V14.2359H167.779L167.827 15.1748V19.3382H167.045H167.047Z" fill="#919292"/>
<path id="Vector_12" d="M174.68 19.4619C174.197 19.4619 173.772 19.3479 173.399 19.1199C173.028 18.8919 172.738 18.577 172.53 18.1752C172.321 17.7733 172.217 17.3116 172.217 16.788C172.217 16.2645 172.319 15.8008 172.524 15.4009C172.729 14.999 173.018 14.6841 173.389 14.4562C173.76 14.2282 174.183 14.1142 174.661 14.1142C175.138 14.1142 175.549 14.2263 175.92 14.4504C176.291 14.6745 176.575 14.9913 176.77 15.399L176.057 15.7351C175.928 15.4627 175.739 15.2502 175.491 15.0976C175.244 14.9449 174.96 14.8677 174.641 14.8677C174.322 14.8677 174.04 14.9488 173.795 15.113C173.55 15.2772 173.358 15.5033 173.219 15.7911C173.078 16.0809 173.009 16.4113 173.009 16.7861C173.009 17.1609 173.078 17.4913 173.219 17.7811C173.358 18.0709 173.555 18.2969 173.807 18.4592C174.058 18.6215 174.342 18.7045 174.662 18.7045C174.983 18.7045 175.267 18.6195 175.518 18.4495C175.769 18.2795 175.959 18.0419 176.09 17.7347L176.803 18.0709C176.608 18.5075 176.324 18.8475 175.953 19.0909C175.582 19.3363 175.159 19.458 174.682 19.458" fill="#919292"/>
<path id="Vector_13" d="M180.796 19.3382L180.748 18.5017V16.6431C180.748 16.2413 180.704 15.9109 180.617 15.6482C180.53 15.3854 180.395 15.1884 180.217 15.0551C180.037 14.9218 179.801 14.8561 179.508 14.8561C179.214 14.8561 178.984 14.914 178.779 15.0299C178.575 15.1459 178.407 15.3255 178.277 15.5709L177.574 15.2753C177.703 15.0377 177.86 14.829 178.043 14.6532C178.225 14.4774 178.439 14.3422 178.683 14.2494C178.928 14.1567 179.206 14.1123 179.519 14.1123C179.97 14.1123 180.344 14.205 180.644 14.3885C180.943 14.5721 181.167 14.8464 181.318 15.2096C181.467 15.5748 181.538 16.0288 181.533 16.5716L181.523 19.3382H180.8H180.796ZM179.33 19.4599C178.756 19.4599 178.308 19.3228 177.987 19.0465C177.665 18.7702 177.504 18.3877 177.504 17.8989C177.504 17.3811 177.669 16.9851 177.997 16.7107C178.325 16.4345 178.787 16.2973 179.38 16.2973H180.777V16.9812H179.556C179.1 16.9812 178.776 17.0585 178.584 17.2169C178.393 17.3734 178.296 17.5975 178.296 17.8912C178.296 18.1559 178.391 18.3664 178.58 18.5191C178.77 18.6717 179.033 18.749 179.373 18.749C179.653 18.749 179.896 18.6813 180.105 18.5442C180.313 18.4089 180.474 18.2235 180.584 17.9878C180.694 17.7521 180.75 17.4855 180.75 17.186H181.229C181.229 17.8796 181.067 18.4321 180.74 18.8436C180.414 19.2551 179.944 19.4619 179.334 19.4619" fill="#919292"/>
<path id="Vector_14" d="M187.491 18.7161C187.798 18.7161 188.068 18.635 188.306 18.4708C188.544 18.3066 188.733 18.0805 188.872 17.7926C189.011 17.5029 189.083 17.1686 189.083 16.788C189.083 16.4074 189.015 16.0809 188.882 15.7873C188.748 15.4956 188.563 15.2676 188.325 15.1034C188.088 14.9392 187.811 14.858 187.5 14.858C187.214 14.858 186.957 14.9392 186.733 15.1034C186.509 15.2676 186.333 15.4936 186.206 15.7815C186.078 16.0713 186.015 16.4055 186.015 16.7861C186.015 17.1667 186.078 17.4932 186.206 17.7869C186.333 18.0805 186.507 18.3066 186.73 18.4708C186.952 18.6331 187.205 18.7161 187.491 18.7161ZM187.666 19.4619C187.257 19.4619 186.896 19.3498 186.587 19.1257C186.277 18.9016 186.038 18.5867 185.868 18.181C185.698 17.7753 185.615 17.3116 185.615 16.788C185.615 16.2645 185.7 15.7911 185.868 15.3893C186.038 14.9874 186.277 14.6745 186.587 14.4504C186.896 14.2263 187.255 14.1142 187.666 14.1142C188.103 14.1142 188.488 14.2263 188.82 14.4504C189.152 14.6745 189.411 14.9874 189.597 15.3893C189.782 15.7911 189.875 16.2567 189.875 16.788C189.875 17.3193 189.782 17.7772 189.597 18.181C189.411 18.5867 189.152 18.8997 188.82 19.1257C188.488 19.3498 188.103 19.4619 187.666 19.4619ZM185.234 21.3803V14.2359H185.966L186.015 15.1748V21.3803H185.232H185.234Z" fill="#919292"/>
<path id="Vector_15" d="M193.969 19.3382L193.92 18.5017V16.6431C193.92 16.2413 193.876 15.9109 193.789 15.6482C193.702 15.3854 193.567 15.1884 193.389 15.0551C193.209 14.9218 192.974 14.8561 192.68 14.8561C192.386 14.8561 192.156 14.914 191.952 15.0299C191.747 15.1459 191.579 15.3255 191.449 15.5709L190.746 15.2753C190.876 15.0377 191.032 14.829 191.216 14.6532C191.397 14.4774 191.612 14.3422 191.855 14.2494C192.099 14.1567 192.379 14.1123 192.692 14.1123C193.142 14.1123 193.517 14.205 193.816 14.3885C194.115 14.5721 194.34 14.8464 194.49 15.2096C194.639 15.5748 194.711 16.0288 194.705 16.5716L194.695 19.3382H193.973H193.969ZM192.502 19.4599C191.929 19.4599 191.48 19.3228 191.16 19.0465C190.837 18.7702 190.675 18.3877 190.675 17.8989C190.675 17.3811 190.839 16.9851 191.167 16.7107C191.496 16.4345 191.957 16.2973 192.551 16.2973H193.947V16.9812H192.726C192.27 16.9812 191.946 17.0585 191.755 17.2169C191.563 17.3734 191.467 17.5975 191.467 17.8912C191.467 18.1559 191.561 18.3664 191.751 18.5191C191.94 18.6717 192.203 18.749 192.543 18.749C192.823 18.749 193.066 18.6813 193.275 18.5442C193.484 18.4089 193.644 18.2235 193.754 17.9878C193.864 17.7521 193.92 17.4855 193.92 17.186H194.399C194.399 17.8796 194.237 18.4321 193.911 18.8436C193.584 19.2551 193.115 19.4619 192.504 19.4619" fill="#919292"/>
<path id="Vector_16" d="M196.374 16.5736C196.374 16.023 196.474 15.5748 196.677 15.2309C196.88 14.887 197.139 14.632 197.454 14.4658C197.771 14.2997 198.103 14.2166 198.455 14.2166V14.9817C198.169 14.9817 197.892 15.0319 197.63 15.1304C197.365 15.2289 197.149 15.3912 196.981 15.6153C196.811 15.8394 196.726 16.1466 196.726 16.533L196.374 16.5736ZM195.943 14.2359H196.726V19.3382H195.943V14.2359Z" fill="#919292"/>
<path id="Vector_17" d="M202.257 19.3382L202.208 18.5017V16.6431C202.208 16.2413 202.164 15.9109 202.077 15.6482C201.99 15.3854 201.855 15.1884 201.677 15.0551C201.497 14.9218 201.262 14.8561 200.968 14.8561C200.674 14.8561 200.444 14.914 200.24 15.0299C200.035 15.1459 199.867 15.3255 199.737 15.5709L199.034 15.2753C199.164 15.0377 199.32 14.829 199.504 14.6532C199.685 14.4774 199.9 14.3422 200.143 14.2494C200.386 14.1567 200.667 14.1123 200.98 14.1123C201.43 14.1123 201.805 14.205 202.104 14.3885C202.403 14.5721 202.628 14.8464 202.778 15.2096C202.927 15.5748 203 16.0288 202.993 16.5716L202.983 19.3382H202.261H202.257ZM200.79 19.4599C200.217 19.4599 199.768 19.3228 199.448 19.0465C199.125 18.7702 198.963 18.3877 198.963 17.8989C198.963 17.3811 199.127 16.9851 199.455 16.7107C199.784 16.4345 200.245 16.2973 200.839 16.2973H202.235V16.9812H201.014C200.558 16.9812 200.234 17.0585 200.043 17.2169C199.851 17.3734 199.755 17.5975 199.755 17.8912C199.755 18.1559 199.849 18.3664 200.039 18.5191C200.228 18.6717 200.491 18.749 200.831 18.749C201.111 18.749 201.354 18.6813 201.563 18.5442C201.772 18.4089 201.932 18.2235 202.042 17.9878C202.152 17.7521 202.208 17.4855 202.208 17.186H202.687C202.687 17.8796 202.525 18.4321 202.199 18.8436C201.872 19.2551 201.403 19.4619 200.792 19.4619" fill="#919292"/>
</g>
<path id="Vector_18" d="M207.427 12.1938H206.644V19.3382H207.427V12.1938Z" fill="#919292"/>
<g id="Group_3">
<path id="Vector_19" d="M210.953 18.7064C211.272 18.7064 211.554 18.6253 211.799 18.4611C212.044 18.2969 212.236 18.0708 212.375 17.783C212.514 17.4932 212.585 17.1628 212.585 16.788C212.585 16.4132 212.516 16.0829 212.375 15.7931C212.234 15.5033 212.04 15.2772 211.793 15.1149C211.546 14.9507 211.258 14.8696 210.933 14.8696C210.609 14.8696 210.333 14.9507 210.087 15.1149C209.842 15.2792 209.651 15.5033 209.512 15.7892C209.37 16.0751 209.301 16.4074 209.301 16.7899C209.301 17.1725 209.37 17.4951 209.512 17.7849C209.651 18.0747 209.848 18.3007 210.097 18.463C210.348 18.6253 210.632 18.7084 210.953 18.7084M210.962 19.4638C210.479 19.4638 210.054 19.3498 209.687 19.1218C209.318 18.8938 209.03 18.5789 208.822 18.1771C208.613 17.7752 208.509 17.3135 208.509 16.7899C208.509 16.2664 208.611 15.8027 208.816 15.4028C209.021 15.001 209.309 14.686 209.676 14.4581C210.045 14.2301 210.466 14.1161 210.941 14.1161C211.416 14.1161 211.838 14.2301 212.207 14.4581C212.576 14.686 212.862 15.001 213.066 15.4028C213.271 15.8046 213.374 16.2664 213.374 16.7899C213.374 17.3135 213.271 17.7772 213.066 18.1771C212.862 18.5789 212.576 18.8938 212.21 19.1218C211.845 19.3498 211.428 19.4638 210.96 19.4638" fill="#919292"/>
<path id="Vector_20" d="M216.171 19.4618C215.814 19.4618 215.501 19.4058 215.232 19.2938C214.966 19.1817 214.741 19.0329 214.562 18.8494C214.382 18.6659 214.255 18.465 214.175 18.2466L214.859 17.9511C214.969 18.1829 215.136 18.3703 215.358 18.5113C215.58 18.6543 215.823 18.7258 216.09 18.7258C216.395 18.7258 216.654 18.662 216.863 18.5364C217.071 18.4109 217.176 18.2312 217.176 18.0013C217.176 17.7907 217.098 17.6207 216.946 17.4912C216.793 17.3618 216.567 17.2575 216.266 17.1744L215.796 17.0411C215.354 16.9194 215.008 16.7339 214.761 16.4847C214.513 16.2374 214.39 15.9553 214.39 15.6424C214.39 15.1594 214.541 14.7846 214.844 14.5141C215.147 14.2456 215.597 14.1103 216.198 14.1103C216.484 14.1103 216.745 14.1548 216.981 14.2436C217.216 14.3325 217.417 14.4561 217.587 14.6165C217.757 14.7768 217.881 14.9642 217.958 15.1826L217.274 15.4994C217.189 15.2676 217.05 15.1014 216.855 14.999C216.66 14.8966 216.422 14.8464 216.142 14.8464C215.843 14.8464 215.607 14.9121 215.439 15.0454C215.269 15.1787 215.184 15.3642 215.184 15.6018C215.184 15.739 215.253 15.8665 215.394 15.9843C215.534 16.1041 215.742 16.2007 216.015 16.276L216.503 16.4074C216.822 16.4886 217.091 16.6103 217.305 16.7706C217.52 16.931 217.684 17.1126 217.794 17.3174C217.904 17.5222 217.96 17.7385 217.96 17.9704C217.96 18.2756 217.883 18.5422 217.726 18.7663C217.57 18.9904 217.357 19.1624 217.091 19.2822C216.824 19.402 216.517 19.4599 216.173 19.4599" fill="#919292"/>
<path id="Vector_21" d="M146.037 29.6181C145.554 29.6181 145.129 29.5042 144.756 29.2762C144.385 29.0482 144.096 28.7333 143.887 28.3315C143.678 27.9296 143.574 27.4679 143.574 26.9443C143.574 26.4208 143.676 25.9571 143.881 25.5572C144.086 25.1553 144.376 24.8424 144.747 24.6124C145.118 24.3845 145.541 24.2705 146.018 24.2705C146.495 24.2705 146.907 24.3825 147.277 24.6067C147.648 24.8308 147.932 25.1476 148.128 25.5552L147.415 25.8914C147.285 25.619 147.096 25.4065 146.849 25.2539C146.601 25.1012 146.317 25.024 145.999 25.024C145.68 25.024 145.398 25.1051 145.152 25.2693C144.907 25.4335 144.716 25.6596 144.577 25.9474C144.436 26.2372 144.366 26.5676 144.366 26.9424C144.366 27.3172 144.436 27.6476 144.577 27.9373C144.716 28.2271 144.913 28.4532 145.164 28.6155C145.415 28.7777 145.699 28.8608 146.02 28.8608C146.34 28.8608 146.624 28.7758 146.876 28.6058C147.127 28.4358 147.316 28.1982 147.447 27.891L148.16 28.2271C147.965 28.6638 147.681 29.0038 147.31 29.2472C146.939 29.4926 146.516 29.6143 146.039 29.6143" fill="#919292"/>
<path id="Vector_22" d="M151.304 28.8627C151.622 28.8627 151.904 28.7816 152.15 28.6174C152.395 28.4532 152.586 28.2271 152.726 27.9393C152.865 27.6495 152.936 27.3191 152.936 26.9443C152.936 26.5695 152.867 26.2391 152.726 25.9494C152.585 25.6596 152.391 25.4335 152.144 25.2712C151.897 25.107 151.609 25.0259 151.284 25.0259C150.96 25.0259 150.684 25.107 150.438 25.2712C150.193 25.4355 150.002 25.6596 149.862 25.9455C149.721 26.2314 149.652 26.5656 149.652 26.9462C149.652 27.3268 149.721 27.6514 149.862 27.9412C150.002 28.231 150.199 28.457 150.448 28.6193C150.699 28.7816 150.983 28.8647 151.304 28.8647M151.313 29.6201C150.83 29.6201 150.405 29.5061 150.038 29.2781C149.669 29.0501 149.381 28.7352 149.173 28.3334C148.964 27.9315 148.86 27.4698 148.86 26.9462C148.86 26.4227 148.962 25.959 149.167 25.5591C149.372 25.1573 149.66 24.8443 150.027 24.6144C150.396 24.3864 150.817 24.2724 151.292 24.2724C151.767 24.2724 152.189 24.3864 152.558 24.6144C152.927 24.8423 153.212 25.1573 153.417 25.5591C153.622 25.9609 153.724 26.4227 153.724 26.9462C153.724 27.4698 153.622 27.9335 153.417 28.3334C153.212 28.7352 152.927 29.0501 152.561 29.2781C152.196 29.5061 151.779 29.6201 151.311 29.6201" fill="#919292"/>
</g>
<path id="Vector_23" d="M155.594 22.3501H154.812V29.4945H155.594V22.3501Z" fill="#919292"/>
<g id="Group_4">
<path id="Vector_24" d="M157.196 27.097L157.206 26.3937H160.832V27.097H157.196ZM159.101 29.6182C158.626 29.6182 158.204 29.5042 157.839 29.2762C157.474 29.0482 157.19 28.7333 156.983 28.3315C156.779 27.9296 156.676 27.4679 156.676 26.9443C156.676 26.4208 156.779 25.9571 156.983 25.5572C157.188 25.1554 157.472 24.8424 157.833 24.6125C158.195 24.3845 158.61 24.2705 159.08 24.2705C159.549 24.2705 159.922 24.3884 160.256 24.6221C160.592 24.8559 160.851 25.1843 161.033 25.6074C161.214 26.0286 161.307 26.527 161.307 27.097H160.525C160.525 26.6623 160.469 26.2894 160.358 25.9803C160.248 25.6712 160.082 25.4316 159.866 25.2616C159.647 25.0916 159.383 25.0066 159.07 25.0066C158.757 25.0066 158.469 25.0877 158.224 25.2462C157.978 25.4065 157.793 25.6325 157.661 25.9262C157.53 26.2179 157.466 26.5618 157.466 26.9559C157.466 27.3501 157.538 27.6785 157.681 27.9606C157.824 28.2426 158.023 28.4648 158.276 28.6232C158.531 28.7836 158.817 28.8628 159.136 28.8628C159.474 28.8628 159.761 28.7778 159.995 28.6078C160.231 28.4377 160.416 28.2175 160.552 27.9451L161.236 28.3025C161.112 28.5672 160.948 28.799 160.741 28.9961C160.536 29.1931 160.295 29.3477 160.018 29.4559C159.742 29.5641 159.433 29.6201 159.095 29.6201" fill="#919292"/>
<path id="Vector_25" d="M164.477 29.6182C163.994 29.6182 163.569 29.5042 163.197 29.2762C162.826 29.0482 162.536 28.7333 162.327 28.3315C162.118 27.9296 162.014 27.4679 162.014 26.9443C162.014 26.4208 162.117 25.9571 162.321 25.5572C162.526 25.1554 162.816 24.8424 163.187 24.6125C163.558 24.3845 163.981 24.2705 164.458 24.2705C164.935 24.2705 165.347 24.3826 165.718 24.6067C166.089 24.8308 166.373 25.1476 166.568 25.5553L165.855 25.8914C165.725 25.619 165.536 25.4065 165.289 25.2539C165.042 25.1013 164.758 25.024 164.439 25.024C164.12 25.024 163.838 25.1051 163.593 25.2693C163.347 25.4336 163.156 25.6596 163.017 25.9475C162.876 26.2372 162.806 26.5676 162.806 26.9424C162.806 27.3172 162.876 27.6476 163.017 27.9374C163.156 28.2272 163.353 28.4532 163.604 28.6155C163.855 28.7778 164.139 28.8608 164.46 28.8608C164.781 28.8608 165.065 28.7758 165.316 28.6058C165.567 28.4358 165.756 28.1982 165.888 27.891L166.601 28.2272C166.406 28.6638 166.122 29.0038 165.751 29.2472C165.38 29.4926 164.957 29.6143 164.479 29.6143" fill="#919292"/>
<path id="Vector_26" d="M169.421 29.6182C168.946 29.6182 168.577 29.4887 168.316 29.2299C168.055 28.971 167.926 28.6078 167.926 28.1383V22.8003H168.708V28.0572C168.708 28.316 168.774 28.515 168.909 28.6541C169.043 28.7932 169.23 28.8628 169.471 28.8628C169.549 28.8628 169.626 28.8512 169.701 28.828C169.777 28.8048 169.875 28.7449 169.999 28.6503L170.302 29.3129C170.132 29.4289 169.98 29.5081 169.842 29.5525C169.705 29.5969 169.566 29.6182 169.421 29.6182ZM167.076 24.3922H170.173V25.1167H167.076V24.3922Z" fill="#919292"/>
<path id="Vector_27" d="M171.326 29.4945L171.345 24.3922H172.128L172.109 29.4945H171.326ZM171.726 23.2079C171.595 23.2079 171.481 23.1577 171.384 23.0553C171.286 22.9529 171.237 22.8351 171.237 22.6979C171.237 22.5549 171.286 22.4332 171.384 22.3347C171.483 22.2362 171.595 22.1859 171.726 22.1859C171.857 22.1859 171.979 22.2362 172.074 22.3347C172.168 22.4332 172.215 22.5549 172.215 22.6979C172.215 22.8409 172.168 22.9529 172.074 23.0553C171.979 23.1577 171.863 23.2079 171.726 23.2079Z" fill="#919292"/>
</g>
<path id="Vector_28" d="M175.039 29.4945L177.033 24.3922H177.854L175.812 29.4945H175.039ZM174.991 29.4945L172.949 24.3922H173.761L175.754 29.4945H174.993H174.991Z" fill="#919292"/>
<g id="Group_5">
<path id="Vector_29" d="M180.669 28.8628C180.988 28.8628 181.27 28.7816 181.516 28.6174C181.761 28.4532 181.952 28.2272 182.091 27.9393C182.23 27.6495 182.302 27.3192 182.302 26.9444C182.302 26.5696 182.232 26.2392 182.091 25.9494C181.95 25.6596 181.757 25.4336 181.51 25.2713C181.262 25.1071 180.975 25.0259 180.65 25.0259C180.325 25.0259 180.049 25.1071 179.804 25.2713C179.559 25.4355 179.367 25.6596 179.228 25.9455C179.087 26.2315 179.018 26.5657 179.018 26.9463C179.018 27.3269 179.087 27.6515 179.228 27.9412C179.367 28.231 179.564 28.4571 179.814 28.6194C180.065 28.7816 180.349 28.8647 180.669 28.8647M180.679 29.6201C180.196 29.6201 179.771 29.5061 179.404 29.2782C179.035 29.0502 178.747 28.7353 178.538 28.3334C178.33 27.9316 178.225 27.4698 178.225 26.9463C178.225 26.4227 178.328 25.9591 178.533 25.5591C178.737 25.1573 179.025 24.8443 179.392 24.6144C179.759 24.3864 180.183 24.2725 180.658 24.2725C181.133 24.2725 181.554 24.3864 181.923 24.6144C182.292 24.8424 182.578 25.1573 182.783 25.5591C182.988 25.961 183.09 26.4227 183.09 26.9463C183.09 27.4698 182.988 27.9335 182.783 28.3334C182.578 28.7353 182.292 29.0502 181.927 29.2782C181.562 29.5061 181.145 29.6201 180.677 29.6201" fill="#919292"/>
<path id="Vector_30" d="M185.887 29.6182C185.53 29.6182 185.217 29.5622 184.949 29.4501C184.682 29.338 184.458 29.1893 184.278 29.0058C184.099 28.8222 183.971 28.6213 183.892 28.403L184.576 28.1074C184.686 28.3392 184.852 28.5266 185.074 28.6677C185.296 28.8106 185.54 28.8821 185.806 28.8821C186.112 28.8821 186.37 28.8184 186.579 28.6928C186.788 28.5672 186.892 28.3875 186.892 28.1576C186.892 27.947 186.815 27.777 186.662 27.6476C186.51 27.5181 186.284 27.4138 185.982 27.3307L185.513 27.1974C185.07 27.0757 184.724 26.8903 184.477 26.641C184.23 26.3918 184.106 26.1117 184.106 25.7987C184.106 25.3157 184.257 24.939 184.56 24.6704C184.864 24.4019 185.314 24.2667 185.915 24.2667C186.2 24.2667 186.461 24.3111 186.697 24.4C186.931 24.4888 187.134 24.6125 187.304 24.7728C187.474 24.9332 187.597 25.1206 187.675 25.3389L186.991 25.6557C186.906 25.4239 186.767 25.2578 186.571 25.1554C186.376 25.053 186.139 25.0027 185.859 25.0027C185.559 25.0027 185.323 25.0684 185.155 25.2017C184.985 25.335 184.9 25.5205 184.9 25.7581C184.9 25.8934 184.97 26.0209 185.111 26.1407C185.25 26.2604 185.459 26.357 185.731 26.4324L186.22 26.5638C186.539 26.6449 186.807 26.7666 187.022 26.927C187.236 27.0873 187.4 27.2689 187.51 27.4737C187.62 27.6785 187.676 27.8949 187.676 28.1267C187.676 28.432 187.599 28.6986 187.443 28.9227C187.286 29.1468 187.074 29.3187 186.807 29.4385C186.54 29.5583 186.233 29.6163 185.889 29.6163" fill="#919292"/>
<path id="Vector_31" d="M191.38 27.097L191.39 26.3937H195.016V27.097H191.38ZM193.285 29.6182C192.81 29.6182 192.389 29.5042 192.024 29.2762C191.658 29.0482 191.374 28.7333 191.168 28.3315C190.963 27.9296 190.861 27.4679 190.861 26.9443C190.861 26.4208 190.963 25.9571 191.168 25.5572C191.373 25.1554 191.657 24.8424 192.018 24.6125C192.379 24.3845 192.794 24.2705 193.264 24.2705C193.733 24.2705 194.106 24.3884 194.44 24.6221C194.777 24.8559 195.036 25.1843 195.217 25.6074C195.399 26.0286 195.491 26.527 195.491 27.097H194.709C194.709 26.6623 194.653 26.2894 194.543 25.9803C194.433 25.6712 194.267 25.4316 194.048 25.2616C193.83 25.0916 193.565 25.0066 193.252 25.0066C192.939 25.0066 192.651 25.0877 192.406 25.2462C192.163 25.4065 191.975 25.6325 191.844 25.9262C191.713 26.2179 191.649 26.5618 191.649 26.9559C191.649 27.3501 191.72 27.6785 191.863 27.9606C192.006 28.2426 192.205 28.4648 192.458 28.6232C192.713 28.7836 192.999 28.8628 193.318 28.8628C193.656 28.8628 193.944 28.7778 194.178 28.6078C194.413 28.4377 194.599 28.2175 194.734 27.9451L195.418 28.3025C195.294 28.5672 195.13 28.799 194.923 28.9961C194.719 29.1931 194.477 29.3477 194.201 29.4559C193.925 29.5641 193.616 29.6201 193.277 29.6201" fill="#919292"/>
<path id="Vector_32" d="M198.19 29.6182C197.833 29.6182 197.52 29.5622 197.251 29.4501C196.985 29.338 196.761 29.1893 196.581 29.0058C196.401 28.8222 196.274 28.6213 196.195 28.403L196.878 28.1074C196.989 28.3392 197.155 28.5266 197.377 28.6677C197.599 28.8106 197.843 28.8821 198.109 28.8821C198.414 28.8821 198.673 28.8184 198.882 28.6928C199.091 28.5672 199.195 28.3875 199.195 28.1576C199.195 27.947 199.118 27.777 198.965 27.6476C198.812 27.5181 198.586 27.4138 198.285 27.3307L197.815 27.1974C197.373 27.0757 197.027 26.8903 196.78 26.641C196.533 26.3918 196.409 26.1117 196.409 25.7987C196.409 25.3157 196.56 24.939 196.863 24.6704C197.166 24.4019 197.616 24.2667 198.217 24.2667C198.503 24.2667 198.764 24.3111 199 24.4C199.234 24.4888 199.436 24.6125 199.606 24.7728C199.776 24.9332 199.9 25.1206 199.977 25.3389L199.293 25.6557C199.208 25.4239 199.069 25.2578 198.874 25.1554C198.679 25.053 198.441 25.0027 198.161 25.0027C197.862 25.0027 197.626 25.0684 197.458 25.2017C197.288 25.335 197.203 25.5205 197.203 25.7581C197.203 25.8934 197.273 26.0209 197.414 26.1407C197.553 26.2604 197.761 26.357 198.034 26.4324L198.523 26.5638C198.841 26.6449 199.11 26.7666 199.324 26.927C199.539 27.0873 199.703 27.2689 199.813 27.4737C199.923 27.6785 199.979 27.8949 199.979 28.1267C199.979 28.432 199.902 28.6986 199.746 28.9227C199.589 29.1468 199.377 29.3187 199.11 29.4385C198.843 29.5583 198.536 29.6163 198.192 29.6163" fill="#919292"/>
<path id="Vector_33" d="M201.268 27.097L201.278 26.3937H204.904V27.097H201.268ZM203.173 29.6182C202.698 29.6182 202.276 29.5042 201.911 29.2762C201.546 29.0482 201.262 28.7333 201.055 28.3315C200.851 27.9296 200.748 27.4679 200.748 26.9443C200.748 26.4208 200.851 25.9571 201.055 25.5572C201.26 25.1554 201.544 24.8424 201.905 24.6125C202.267 24.3845 202.682 24.2705 203.152 24.2705C203.621 24.2705 203.994 24.3884 204.328 24.6221C204.664 24.8559 204.923 25.1843 205.105 25.6074C205.286 26.0286 205.379 26.527 205.379 27.097H204.597C204.597 26.6623 204.541 26.2894 204.43 25.9803C204.32 25.6712 204.154 25.4316 203.938 25.2616C203.72 25.0916 203.455 25.0066 203.142 25.0066C202.829 25.0066 202.541 25.0877 202.296 25.2462C202.052 25.4065 201.865 25.6325 201.733 25.9262C201.602 26.2179 201.538 26.5618 201.538 26.9559C201.538 27.3501 201.61 27.6785 201.753 27.9606C201.896 28.2426 202.095 28.4648 202.348 28.6232C202.603 28.7836 202.889 28.8628 203.208 28.8628C203.546 28.8628 203.834 28.7778 204.067 28.6078C204.303 28.4377 204.488 28.2175 204.624 27.9451L205.308 28.3025C205.184 28.5672 205.02 28.799 204.813 28.9961C204.608 29.1931 204.367 29.3477 204.09 29.4559C203.814 29.5641 203.505 29.6201 203.167 29.6201" fill="#919292"/>
<path id="Vector_34" d="M209.799 29.4945V26.8825L210.582 26.5753V29.4945H209.799ZM209.799 26.8825C209.799 26.3783 209.743 25.9938 209.633 25.7291C209.523 25.4645 209.369 25.2809 209.173 25.1824C208.978 25.0839 208.756 25.0336 208.509 25.0336C208.078 25.0336 207.746 25.1921 207.506 25.5089C207.268 25.8257 207.149 26.272 207.149 26.8516H206.768C206.768 26.3145 206.843 25.8509 206.992 25.4645C207.141 25.0761 207.359 24.7806 207.641 24.5758C207.925 24.371 208.267 24.2705 208.673 24.2705C209.266 24.2705 209.734 24.4618 210.076 24.8424C210.418 25.223 210.586 25.8026 210.578 26.5773L209.795 26.8845L209.799 26.8825ZM206.368 29.4945V24.3922H207.1L207.149 25.3312V29.4945H206.366H206.368Z" fill="#919292"/>
<path id="Vector_35" d="M214.001 29.6182C213.518 29.6182 213.093 29.5042 212.721 29.2762C212.35 29.0482 212.06 28.7333 211.851 28.3315C211.642 27.9296 211.538 27.4679 211.538 26.9443C211.538 26.4208 211.641 25.9571 211.845 25.5572C212.05 25.1554 212.34 24.8424 212.711 24.6125C213.082 24.3845 213.505 24.2705 213.982 24.2705C214.459 24.2705 214.871 24.3826 215.242 24.6067C215.613 24.8308 215.897 25.1476 216.092 25.5553L215.379 25.8914C215.249 25.619 215.06 25.4065 214.813 25.2539C214.566 25.1013 214.282 25.024 213.963 25.024C213.644 25.024 213.362 25.1051 213.117 25.2693C212.871 25.4336 212.68 25.6596 212.541 25.9475C212.4 26.2372 212.33 26.5676 212.33 26.9424C212.33 27.3172 212.4 27.6476 212.541 27.9374C212.68 28.2272 212.877 28.4532 213.126 28.6155C213.377 28.7778 213.661 28.8608 213.982 28.8608C214.303 28.8608 214.587 28.7758 214.838 28.6058C215.089 28.4358 215.278 28.1982 215.41 27.891L216.123 28.2272C215.928 28.6638 215.644 29.0038 215.273 29.2472C214.902 29.4926 214.479 29.6143 214.003 29.6143" fill="#919292"/>
<path id="Vector_36" d="M217.158 29.4945L217.178 24.3922H217.96L217.941 29.4945H217.158ZM217.558 23.2079C217.427 23.2079 217.315 23.1577 217.216 23.0553C217.118 22.9529 217.069 22.8351 217.069 22.6979C217.069 22.5549 217.118 22.4332 217.216 22.3347C217.315 22.2362 217.427 22.1859 217.558 22.1859C217.69 22.1859 217.811 22.2362 217.906 22.3347C218.001 22.4332 218.047 22.5549 218.047 22.6979C218.047 22.8409 218.001 22.9529 217.906 23.0553C217.811 23.1577 217.695 23.2079 217.558 23.2079Z" fill="#919292"/>
<path id="Vector_37" d="M222.386 29.4945L222.338 28.658V26.7994C222.338 26.3976 222.293 26.0672 222.206 25.8045C222.12 25.5417 221.984 25.3447 221.807 25.2133C221.627 25.08 221.391 25.0143 221.098 25.0143C220.804 25.0143 220.574 25.0723 220.369 25.1882C220.164 25.3041 219.996 25.4838 219.867 25.7291L219.164 25.4336C219.293 25.1959 219.45 24.9873 219.633 24.8115C219.815 24.6337 220.029 24.5004 220.273 24.4077C220.518 24.315 220.796 24.2705 221.109 24.2705C221.559 24.2705 221.934 24.3632 222.234 24.5468C222.533 24.7303 222.757 25.0047 222.908 25.3679C223.057 25.7311 223.128 26.1851 223.122 26.7299L223.113 29.4965H222.39L222.386 29.4945ZM220.92 29.6162C220.346 29.6162 219.898 29.4791 219.577 29.2028C219.254 28.9285 219.094 28.544 219.094 28.0552C219.094 27.5375 219.258 27.1414 219.587 26.8651C219.915 26.5908 220.377 26.4517 220.97 26.4517H222.367V27.1356H221.146C220.69 27.1356 220.365 27.2129 220.174 27.3713C219.983 27.5278 219.886 27.7519 219.886 28.0456C219.886 28.3102 219.981 28.5208 220.17 28.6734C220.36 28.8261 220.622 28.9033 220.962 28.9033C221.242 28.9033 221.486 28.8357 221.695 28.6986C221.903 28.5633 222.064 28.3779 222.174 28.1422C222.284 27.9065 222.34 27.6398 222.34 27.3404H222.819C222.819 28.034 222.657 28.5865 222.33 28.998C222.004 29.4095 221.534 29.6162 220.924 29.6162" fill="#919292"/>
</g>
<path id="Vector_38" d="M225.143 22.3501H224.36V29.4945H225.143V22.3501Z" fill="#919292"/>
<g id="Group_6">
<path id="Vector_39" d="M226.744 27.097L226.754 26.3937H230.38V27.097H226.744ZM228.649 29.6182C228.174 29.6182 227.753 29.5042 227.388 29.2762C227.023 29.0482 226.739 28.7333 226.532 28.3315C226.327 27.9296 226.225 27.4679 226.225 26.9443C226.225 26.4208 226.327 25.9571 226.532 25.5572C226.737 25.1554 227.021 24.8424 227.382 24.6125C227.743 24.3845 228.159 24.2705 228.628 24.2705C229.098 24.2705 229.47 24.3884 229.805 24.6221C230.141 24.8559 230.4 25.1843 230.581 25.6074C230.763 26.0286 230.856 26.527 230.856 27.097H230.073C230.073 26.6623 230.017 26.2894 229.907 25.9803C229.797 25.6712 229.631 25.4316 229.414 25.2616C229.196 25.0916 228.931 25.0066 228.618 25.0066C228.305 25.0066 228.018 25.0877 227.772 25.2462C227.527 25.4065 227.341 25.6325 227.21 25.9262C227.079 26.2179 227.015 26.5618 227.015 26.9559C227.015 27.3501 227.086 27.6785 227.229 27.9606C227.372 28.2426 227.571 28.4648 227.824 28.6232C228.079 28.7836 228.365 28.8628 228.684 28.8628C229.022 28.8628 229.31 28.7778 229.544 28.6078C229.78 28.4377 229.965 28.2175 230.1 27.9451L230.784 28.3025C230.661 28.5672 230.496 28.799 230.29 28.9961C230.085 29.1931 229.843 29.3477 229.567 29.4559C229.291 29.5641 228.982 29.6201 228.644 29.6201" fill="#919292"/>
<path id="Vector_40" d="M233.556 29.6182C233.199 29.6182 232.886 29.5622 232.618 29.4501C232.351 29.338 232.127 29.1893 231.947 29.0058C231.767 28.8222 231.64 28.6213 231.561 28.403L232.245 28.1074C232.355 28.3392 232.521 28.5266 232.743 28.6677C232.965 28.8106 233.209 28.8821 233.475 28.8821C233.781 28.8821 234.039 28.8184 234.248 28.6928C234.457 28.5672 234.561 28.3875 234.561 28.1576C234.561 27.947 234.484 27.777 234.331 27.6476C234.179 27.5181 233.953 27.4138 233.651 27.3307L233.182 27.1974C232.739 27.0757 232.393 26.8903 232.146 26.641C231.899 26.3918 231.775 26.1117 231.775 25.7987C231.775 25.3157 231.926 24.939 232.229 24.6704C232.533 24.4019 232.983 24.2667 233.584 24.2667C233.869 24.2667 234.13 24.3111 234.366 24.4C234.6 24.4888 234.803 24.6125 234.973 24.7728C235.143 24.9332 235.266 25.1206 235.344 25.3389L234.66 25.6557C234.575 25.4239 234.435 25.2578 234.24 25.1554C234.045 25.053 233.808 25.0027 233.527 25.0027C233.228 25.0027 232.992 25.0684 232.824 25.2017C232.654 25.335 232.569 25.5205 232.569 25.7581C232.569 25.8934 232.639 26.0209 232.78 26.1407C232.919 26.2604 233.128 26.357 233.4 26.4324L233.889 26.5638C234.208 26.6449 234.476 26.7666 234.691 26.927C234.905 27.0873 235.069 27.2689 235.179 27.4737C235.289 27.6785 235.345 27.8949 235.345 28.1267C235.345 28.432 235.268 28.6986 235.112 28.9227C234.955 29.1468 234.743 29.3187 234.476 29.4385C234.209 29.5583 233.902 29.6163 233.558 29.6163" fill="#919292"/>
</g>
</g>
<defs>
<clipPath id="clip0_870_600">
<rect width="235.15" height="31.8947" fill="white" transform="translate(0.193604 0.714142)"/>
</clipPath>
</defs>
</svg>
